<svg width="26" height="24" viewBox="0 0 26 24" fill="none" xmlns="http://www.w3.org/2000/svg">
<path d="M2.6 2.66667H6.5L9.1 0H16.9L19.5 2.66667H23.4C24.0896 2.66667 24.7509 2.94762 25.2385 3.44772C25.7261 3.94781 26 4.62609 26 5.33333V21.3333C26 22.0406 25.7261 22.7189 25.2385 23.219C24.7509 23.719 24.0896 24 23.4 24H2.6C1.91044 24 1.24912 23.719 0.761522 23.219C0.273928 22.7189 0 22.0406 0 21.3333V5.33333C0 4.62609 0.273928 3.94781 0.761522 3.44772C1.24912 2.94762 1.91044 2.66667 2.6 2.66667ZM13 6.66667C11.2761 6.66667 9.62279 7.36905 8.40381 8.61929C7.18482 9.86953 6.5 11.5652 6.5 13.3333C6.5 15.1014 7.18482 16.7971 8.40381 18.0474C9.62279 19.2976 11.2761 20 13 20C14.7239 20 16.3772 19.2976 17.5962 18.0474C18.8152 16.7971 19.5 15.1014 19.5 13.3333C19.5 11.5652 18.8152 9.86953 17.5962 8.61929C16.3772 7.36905 14.7239 6.66667 13 6.66667ZM13 9.33333C14.0343 9.33333 15.0263 9.75476 15.7577 10.5049C16.4891 11.2551 16.9 12.2725 16.9 13.3333C16.9 14.3942 16.4891 15.4116 15.7577 16.1618C15.0263 16.9119 14.0343 17.3333 13 17.3333C11.9657 17.3333 10.9737 16.9119 10.2423 16.1618C9.51089 15.4116 9.1 14.3942 9.1 13.3333C9.1 12.2725 9.51089 11.2551 10.2423 10.5049C10.9737 9.75476 11.9657 9.33333 13 9.33333Z" fill="#3B88ED"/>
</svg>
