<svg width="25" height="25" viewBox="0 0 25 25" fill="none" xmlns="http://www.w3.org/2000/svg">
<path d="M12.5 0C19.4036 0 25 5.59694 25 12.5012C25 19.4043 19.4036 25 12.5 25C5.59638 25 0 19.4043 0 12.5012C0 5.59694 5.59638 0 12.5 0ZM12.5 1.87481C11.095 1.85957 9.70101 2.12316 8.39859 2.65032C7.09617 3.17749 5.91123 3.95775 4.91234 4.94596C3.91346 5.93417 3.12046 7.1107 2.57926 8.40746C2.03806 9.70422 1.75939 11.0954 1.75939 12.5006C1.75939 13.9058 2.03806 15.297 2.57926 16.5938C3.12046 17.8905 3.91346 19.0671 4.91234 20.0553C5.91123 21.0435 7.09617 21.8238 8.39859 22.3509C9.70101 22.8781 11.095 23.1417 12.5 23.1264C15.2979 23.0961 17.9709 21.9632 19.9387 19.9738C21.9064 17.9844 23.0101 15.299 23.0101 12.5006C23.0101 9.70228 21.9064 7.01688 19.9387 5.02745C17.9709 3.03803 15.2979 1.90516 12.5 1.87481ZM8.07838 15.9797C8.6049 16.6487 9.27645 17.1896 10.0424 17.5613C10.8083 17.933 11.6486 18.126 12.5 18.1257C13.3506 18.1268 14.1903 17.9346 14.9556 17.5634C15.721 17.1923 16.392 16.652 16.9179 15.9834C16.9942 15.8868 17.0888 15.8062 17.1962 15.7462C17.3037 15.6861 17.4219 15.6478 17.5442 15.6335C17.6665 15.6192 17.7903 15.6291 17.9088 15.6626C18.0272 15.6962 18.1379 15.7527 18.2345 15.829C18.3311 15.9054 18.4117 16 18.4717 16.1074C18.5317 16.2149 18.57 16.3332 18.5843 16.4554C18.5987 16.5777 18.5888 16.7016 18.5552 16.8201C18.5217 16.9385 18.4651 17.0492 18.3888 17.1458C17.6874 18.0365 16.793 18.7563 15.7728 19.2508C14.7527 19.7453 13.6336 20.0016 12.5 20.0005C11.3647 20.0017 10.244 19.7446 9.22267 19.2488C8.20136 18.7529 7.3062 18.0312 6.60493 17.1383C6.52878 17.0415 6.47243 16.9307 6.4391 16.8122C6.40577 16.6936 6.39611 16.5697 6.41067 16.4474C6.42523 16.3252 6.46374 16.207 6.52398 16.0996C6.58422 15.9922 6.66502 15.8977 6.76177 15.8215C6.85852 15.7454 6.96932 15.689 7.08785 15.6557C7.20637 15.6224 7.3303 15.6127 7.45256 15.6273C7.57482 15.6418 7.69301 15.6803 7.80039 15.7406C7.90777 15.8008 8.00223 15.8816 8.07838 15.9784M8.75075 8.43916C8.95953 8.43325 9.16738 8.46927 9.362 8.5451C9.55662 8.62093 9.73406 8.73501 9.88383 8.88062C10.0336 9.02622 10.1526 9.20038 10.2339 9.3928C10.3152 9.58522 10.3571 9.79199 10.3571 10.0009C10.3571 10.2098 10.3152 10.4165 10.2339 10.6089C10.1526 10.8014 10.0336 10.9755 9.88383 11.1211C9.73406 11.2667 9.55662 11.3808 9.362 11.4566C9.16738 11.5325 8.95953 11.5685 8.75075 11.5626C8.34424 11.5511 7.95825 11.3815 7.67479 11.0899C7.39132 10.7983 7.23274 10.4076 7.23274 10.0009C7.23274 9.59417 7.39132 9.20349 7.67479 8.91187C7.95825 8.62024 8.34424 8.45066 8.75075 8.43916ZM16.2492 8.43916C16.458 8.43325 16.6659 8.46927 16.8605 8.5451C17.0551 8.62093 17.2326 8.73501 17.3823 8.88062C17.5321 9.02622 17.6511 9.20038 17.7324 9.3928C17.8137 9.58522 17.8556 9.79199 17.8556 10.0009C17.8556 10.2098 17.8137 10.4165 17.7324 10.6089C17.6511 10.8014 17.5321 10.9755 17.3823 11.1211C17.2326 11.2667 17.0551 11.3808 16.8605 11.4566C16.6659 11.5325 16.458 11.5685 16.2492 11.5626C15.8427 11.5511 15.4567 11.3815 15.1733 11.0899C14.8898 10.7983 14.7312 10.4076 14.7312 10.0009C14.7312 9.59417 14.8898 9.20349 15.1733 8.91187C15.4567 8.62024 15.8427 8.45066 16.2492 8.43916Z" fill="#D2A12F"/>
</svg>
