<svg width="26" height="21" viewBox="0 0 26 21" fill="none" xmlns="http://www.w3.org/2000/svg">
<path d="M2.6 2.625V18.375H23.4V2.625H2.6ZM2.6 0H23.4C24.0896 0 24.7509 0.276562 25.2385 0.768845C25.7261 1.26113 26 1.92881 26 2.625V18.375C26 19.0712 25.7261 19.7389 25.2385 20.2312C24.7509 20.7234 24.0896 21 23.4 21H2.6C1.91044 21 1.24912 20.7234 0.761522 20.2312C0.273928 19.7389 0 19.0712 0 18.375V2.625C0 1.92881 0.273928 1.26113 0.761522 0.768845C1.24912 0.276562 1.91044 0 2.6 0ZM7.15 9.1875C7.66717 9.1875 8.16316 8.98008 8.52886 8.61087C8.89455 8.24165 9.1 7.74089 9.1 7.21875C9.1 6.69661 8.89455 6.19585 8.52886 5.82663C8.16316 5.45742 7.66717 5.25 7.15 5.25C6.63283 5.25 6.13684 5.45742 5.77114 5.82663C5.40545 6.19585 5.2 6.69661 5.2 7.21875C5.2 7.74089 5.40545 8.24165 5.77114 8.61087C6.13684 8.98008 6.63283 9.1875 7.15 9.1875ZM6.5 13.125L9.1 10.5L11.7 13.125L16.9 7.875L20.8 11.8125V15.75H6.5V13.125Z" fill="#76C37B"/>
</svg>
