<svg width="51" height="39" viewBox="0 0 51 39" fill="none" xmlns="http://www.w3.org/2000/svg">
<rect x="1.5" y="1.5" width="48" height="36" rx="18" fill="white" stroke="#323643"/>
<rect x="0.5" y="0.5" width="50" height="38" rx="18" stroke="#94DFFF"/>
<path d="M26.5 13.75C26.5 13.5511 26.421 13.3603 26.2803 13.2197C26.1397 13.079 25.9489 13 25.75 13C25.5511 13 25.3603 13.079 25.2197 13.2197C25.079 13.3603 25 13.5511 25 13.75V18H20.75C20.5511 18 20.3603 18.079 20.2197 18.2197C20.079 18.3603 20 18.5511 20 18.75C20 18.9489 20.079 19.1397 20.2197 19.2803C20.3603 19.421 20.5511 19.5 20.75 19.5H25V23.75C25 23.9489 25.079 24.1397 25.2197 24.2803C25.3603 24.421 25.5511 24.5 25.75 24.5C25.9489 24.5 26.1397 24.421 26.2803 24.2803C26.421 24.1397 26.5 23.9489 26.5 23.75V19.5H30.75C30.9489 19.5 31.1397 19.421 31.2803 19.2803C31.421 19.1397 31.5 18.9489 31.5 18.75C31.5 18.5511 31.421 18.3603 31.2803 18.2197C31.1397 18.079 30.9489 18 30.75 18H26.5V13.75Z" fill="black"/>
</svg>
