<?xml version="1.0" encoding="utf-8"?>
<!-- Generator: Adobe Illustrator 26.3.1, SVG Export Plug-In . SVG Version: 6.00 Build 0)  -->
<svg version="1.1" id="Layer_1" xmlns="http://www.w3.org/2000/svg" xmlns:xlink="http://www.w3.org/1999/xlink" x="0px" y="0px"
	 viewBox="0 0 51 39" style="enable-background:new 0 0 51 39;" xml:space="preserve">
<style type="text/css">
	.st0{fill:#FFFFFF;stroke:#323643;}
	.st1{fill:none;stroke:#94DFFF;}
	.st2{fill:none;}
</style>
<path class="st0" d="M19.5,1.5h12c9.9,0,18,8.1,18,18l0,0c0,9.9-8.1,18-18,18h-12c-9.9,0-18-8.1-18-18l0,0C1.5,9.6,9.6,1.5,19.5,1.5
	z"/>
<path class="st1" d="M18.5,0.5h14c9.9,0,18,8.1,18,18v2c0,9.9-8.1,18-18,18h-14c-9.9,0-18-8.1-18-18v-2C0.5,8.6,8.6,0.5,18.5,0.5z"
	/>
<rect x="17" y="11" class="st2" width="18" height="18"/>
<rect x="24.6" y="7.8" transform="matrix(6.123234e-17 -1 1 6.123234e-17 5.2856 45.2856)" width="1.4" height="24.4"/>
<rect x="24.6" y="7.3" transform="matrix(-1 -1.224647e-16 1.224647e-16 -1 50.5711 39)" width="1.4" height="24.4"/>
</svg>
